<svg xmlns:svg="http://www.w3.org/2000/svg" xmlns="http://www.w3.org/2000/svg" version="1.1" x="0" y="0" width="120.9" height="129.2" viewBox="0 0 120.9 129.2" enable-background="new 0 0 841.89 595.28" xml:space="preserve"><linearGradient gradientUnits="userSpaceOnUse" x1="226.9" y1="284.5" x2="210.5" y2="252.5" gradientTransform="translate(-124.695,-206.60063)"><stop offset="0" stop-color="#FCD08F"/><stop offset="1" stop-color="#F79673"/></linearGradient><path d="m89.2 84.5c15.3-8.4 27-14.8 28-15.3 3.2-1.7 6.5-6.2 0-9.7-2.1-1.1-13.4-7.3-28-15.3l-20.1 20.2 20.1 20.1z" fill="#ffaa76"/><linearGradient gradientUnits="userSpaceOnUse" x1="203.1" y1="279.7" x2="141" y2="346.4" gradientTransform="translate(-124.695,-206.60063)"><stop offset="0" stop-color="#E74047"/><stop offset="1" stop-color="#7F50A0"/></linearGradient><path d="M69.1 64.4 4.9 129.1c1.5 0.2 3.2-0.2 5.2-1.3 4.2-2.3 48.8-26.7 79.1-43.3l-20.1-20.1z" fill="#e35662"/><linearGradient gradientUnits="userSpaceOnUse" x1="203.5" y1="261.7" x2="140.3" y2="196.3" gradientTransform="translate(-124.695,-206.60063)"><stop offset="0" stop-color="#E6FFAB"/><stop offset="1" stop-color="#47BEBC"/></linearGradient><path d="m69.1 64.4 20.1-20.2c0 0-74.6-40.7-79.1-43.1C8.4 0.1 6.5-0.2 4.8 0.1L69.1 64.4z" fill="#c6f0bd"/><linearGradient gradientUnits="userSpaceOnUse" x1="159.2" y1="335.7" x2="159.2" y2="206.8" gradientTransform="translate(-124.695,-206.60063)"><stop offset="0" stop-color="#84E9DB"/><stop offset="1" stop-color="#197491"/></linearGradient><path d="M69.1 64.4 4.8 0.1C2.2 0.7 0 3 0 7.7 0 15.2 0 115.1 0 121.4c0 4.3 1.7 7.4 4.9 7.7L69.1 64.4z" fill="#57c2c2"/></svg>