<?xml version="1.0" encoding="utf-8"?>
<!-- Generator: Adobe Illustrator 18.1.1, SVG Export Plug-In . SVG Version: 6.00 Build 0)  -->
<svg version="1.1" baseProfile="basic" id="_x34_00x400"
	 xmlns="http://www.w3.org/2000/svg" xmlns:xlink="http://www.w3.org/1999/xlink" x="0px" y="0px" viewBox="0 0 400 400"
	 xml:space="preserve">
<rect id="background__x28_solid_fill_-_use_your_primary_brand_color_x29_" fill="#418FDE" width="400" height="400"/>
<g>
	<g id="text">
		<path fill="#FFFFFF" d="M144.9,200.2c0,1.6-0.3,3.1-0.8,4.4c-0.6,1.4-1.3,2.5-2.3,3.5c-1,1-2.2,1.8-3.6,2.3
			c-1.4,0.6-3,0.8-4.7,0.8h-8.6v-22.1h8.6c1.7,0,3.3,0.3,4.7,0.8c1.4,0.6,2.6,1.3,3.6,2.3c1,1,1.8,2.1,2.3,3.5
			C144.6,197.2,144.9,198.6,144.9,200.2z M139.6,200.2c0-1.1-0.1-2.1-0.4-3c-0.3-0.9-0.7-1.6-1.2-2.2c-0.5-0.6-1.2-1.1-2-1.4
			c-0.8-0.3-1.6-0.5-2.6-0.5H130v14.2h3.4c1,0,1.9-0.2,2.6-0.5c0.8-0.3,1.4-0.8,2-1.4c0.5-0.6,0.9-1.4,1.2-2.2
			C139.5,202.3,139.6,201.3,139.6,200.2z"/>
		<path fill="#FFFFFF" d="M173.5,211.3h-4c-0.4,0-0.8-0.1-1.1-0.3c-0.3-0.2-0.5-0.5-0.6-0.8l-1.3-3.9h-8.4l-1.3,3.9
			c-0.1,0.3-0.3,0.5-0.6,0.8c-0.3,0.2-0.7,0.3-1.1,0.3h-4l8.6-22.1h5.3L173.5,211.3z M159.3,202.8h6l-2-6.1
			c-0.1-0.4-0.3-0.8-0.5-1.4c-0.2-0.5-0.4-1.1-0.5-1.7c-0.2,0.6-0.3,1.2-0.5,1.7c-0.2,0.5-0.3,1-0.5,1.4L159.3,202.8z"/>
		<path fill="#FFFFFF" d="M194,193.7c-0.2,0.2-0.3,0.4-0.5,0.5c-0.2,0.1-0.4,0.2-0.6,0.2c-0.2,0-0.5-0.1-0.8-0.2
			c-0.3-0.1-0.6-0.3-0.9-0.5c-0.3-0.2-0.7-0.3-1.2-0.5c-0.4-0.1-0.9-0.2-1.5-0.2c-1,0-1.7,0.2-2.1,0.6c-0.5,0.4-0.7,1-0.7,1.7
			c0,0.4,0.1,0.8,0.4,1.1c0.3,0.3,0.7,0.5,1.1,0.8c0.5,0.2,1,0.4,1.6,0.6c0.6,0.2,1.2,0.4,1.8,0.6c0.6,0.2,1.2,0.5,1.8,0.8
			c0.6,0.3,1.1,0.7,1.6,1.1c0.5,0.5,0.8,1,1.1,1.7c0.3,0.7,0.4,1.4,0.4,2.4c0,1-0.2,2-0.5,2.9c-0.4,0.9-0.9,1.7-1.5,2.3
			c-0.7,0.7-1.5,1.2-2.5,1.6c-1,0.4-2.1,0.6-3.4,0.6c-0.7,0-1.4-0.1-2.1-0.2c-0.7-0.1-1.4-0.3-2.1-0.6c-0.7-0.3-1.3-0.6-1.9-0.9
			c-0.6-0.4-1.1-0.7-1.5-1.2l1.5-2.4c0.1-0.2,0.3-0.3,0.5-0.4c0.2-0.1,0.4-0.2,0.7-0.2c0.3,0,0.6,0.1,0.9,0.3c0.3,0.2,0.7,0.4,1,0.6
			c0.4,0.2,0.8,0.4,1.3,0.6c0.5,0.2,1.1,0.3,1.8,0.3c0.9,0,1.7-0.2,2.2-0.6c0.5-0.4,0.8-1.1,0.8-2c0-0.5-0.1-0.9-0.4-1.3
			c-0.3-0.3-0.7-0.6-1.1-0.8c-0.5-0.2-1-0.4-1.6-0.6c-0.6-0.2-1.2-0.3-1.8-0.5c-0.6-0.2-1.2-0.4-1.8-0.7c-0.6-0.3-1.1-0.7-1.6-1.1
			c-0.5-0.5-0.8-1.1-1.1-1.8c-0.3-0.7-0.4-1.6-0.4-2.6c0-0.8,0.2-1.6,0.5-2.4s0.8-1.5,1.5-2.1c0.6-0.6,1.4-1.1,2.4-1.5
			c0.9-0.4,2-0.6,3.2-0.6c0.7,0,1.3,0.1,2,0.2c0.6,0.1,1.3,0.3,1.8,0.5c0.6,0.2,1.1,0.5,1.6,0.7c0.5,0.3,0.9,0.6,1.3,1L194,193.7z"
			/>
		<path fill="#FFFFFF" d="M223.9,211.3h-5.2v-9.4h-9v9.4h-5.2v-22.1h5.2v9.2h9v-9.2h5.2V211.3z"/>
		<path fill="#FFFFFF" d="M237.4,201.6v9.7h-1.5v-21.5h5.5c2.5,0,4.3,0.5,5.6,1.4c1.2,1,1.8,2.4,1.8,4.2c0,0.8-0.1,1.6-0.4,2.2
			c-0.3,0.7-0.7,1.3-1.2,1.8c-0.5,0.5-1.2,0.9-1.9,1.3c-0.7,0.3-1.6,0.5-2.5,0.6c0.2,0.2,0.5,0.4,0.7,0.6l7.4,9.3h-1.4
			c-0.2,0-0.3,0-0.4-0.1c-0.1-0.1-0.2-0.2-0.3-0.3l-6.9-8.7c-0.2-0.2-0.4-0.4-0.6-0.5c-0.2-0.1-0.5-0.1-0.9-0.1H237.4z M237.4,200.4
			h3.7c1,0,1.8-0.1,2.6-0.3c0.8-0.2,1.4-0.6,1.9-1c0.5-0.4,0.9-0.9,1.2-1.5c0.3-0.6,0.4-1.3,0.4-2c0-1.5-0.5-2.7-1.5-3.4
			c-1-0.7-2.5-1.1-4.4-1.1h-3.9V200.4z"/>
		<path fill="#FFFFFF" d="M277.1,211.3h-1.2c-0.1,0-0.3,0-0.3-0.1c-0.1-0.1-0.2-0.2-0.2-0.3l-2.5-6.2h-10.6l-2.5,6.2
			c0,0.1-0.1,0.2-0.2,0.3c-0.1,0.1-0.2,0.1-0.4,0.1H258l8.8-21.5h1.5L277.1,211.3z M262.8,203.5h9.6l-4.4-10.9
			c-0.1-0.2-0.1-0.4-0.2-0.6c-0.1-0.2-0.1-0.4-0.2-0.7c-0.1,0.2-0.1,0.5-0.2,0.7c-0.1,0.2-0.1,0.4-0.2,0.6L262.8,203.5z"/>
		<path fill="#FFFFFF" d="M305.1,200.6c0,1.7-0.2,3.2-0.7,4.5c-0.5,1.3-1.2,2.5-2.1,3.4c-0.9,0.9-2,1.6-3.2,2.1
			c-1.3,0.5-2.6,0.7-4.2,0.7H287v-21.5h7.8c1.5,0,2.9,0.2,4.2,0.7c1.3,0.5,2.3,1.2,3.2,2.1c0.9,0.9,1.6,2.1,2.1,3.4
			C304.8,197.4,305.1,198.9,305.1,200.6z M303.5,200.6c0-1.5-0.2-2.8-0.6-4c-0.4-1.2-1-2.2-1.8-3c-0.8-0.8-1.7-1.4-2.7-1.9
			c-1.1-0.4-2.2-0.6-3.5-0.6h-6.3v19h6.3c1.3,0,2.5-0.2,3.5-0.6c1.1-0.4,2-1,2.7-1.9c0.8-0.8,1.3-1.8,1.8-3
			C303.3,203.4,303.5,202.1,303.5,200.6z"/>
		<path fill="#FFFFFF" d="M318.6,211.3h-1.6v-21.5h1.6V211.3z"/>
		<path fill="#FFFFFF" d="M351.2,200.6c0,1.7-0.2,3.2-0.7,4.5c-0.5,1.4-1.2,2.5-2.1,3.5c-0.9,1-2,1.7-3.2,2.2s-2.6,0.8-4.2,0.8
			c-1.5,0-2.9-0.3-4.1-0.8c-1.3-0.5-2.3-1.3-3.2-2.2c-0.9-1-1.6-2.1-2.1-3.5c-0.5-1.4-0.8-2.9-0.8-4.5c0-1.7,0.3-3.2,0.8-4.5
			c0.5-1.4,1.2-2.5,2.1-3.5c0.9-1,2-1.7,3.2-2.2c1.3-0.5,2.6-0.8,4.1-0.8c1.5,0,2.9,0.3,4.2,0.8c1.3,0.5,2.3,1.3,3.2,2.2
			c0.9,1,1.6,2.1,2.1,3.5C350.9,197.4,351.2,198.9,351.2,200.6z M349.6,200.6c0-1.5-0.2-2.8-0.6-4c-0.4-1.2-1-2.2-1.8-3
			c-0.8-0.8-1.7-1.5-2.7-1.9s-2.2-0.7-3.5-0.7c-1.3,0-2.4,0.2-3.5,0.7s-2,1.1-2.7,1.9c-0.8,0.8-1.4,1.8-1.8,3
			c-0.4,1.2-0.6,2.5-0.6,4c0,1.5,0.2,2.9,0.6,4c0.4,1.2,1,2.2,1.8,3c0.8,0.8,1.7,1.5,2.7,1.9c1.1,0.4,2.2,0.7,3.5,0.7
			c1.3,0,2.5-0.2,3.5-0.7c1.1-0.4,2-1.1,2.7-1.9c0.8-0.8,1.3-1.8,1.8-3C349.4,203.4,349.6,202.1,349.6,200.6z"/>
	</g>
	<path id="design_mark_1_" fill="#FFFFFF" d="M55.6,178.1c0,1.7-1.4,3.1-3.1,3.1c-1.7,0-3.1-1.4-3.1-3.1s1.4-3.1,3.1-3.1
		C54.2,174.9,55.6,176.3,55.6,178.1z M52.5,189.6c-1.7,0-3.1,1.4-3.1,3.1s1.4,3.1,3.1,3.1c1.7,0,3.1-1.4,3.1-3.1
		S54.2,189.6,52.5,189.6z M52.5,218.9c-1.7,0-3.1,1.4-3.1,3.1s1.4,3.1,3.1,3.1c1.7,0,3.1-1.4,3.1-3.1S54.2,218.9,52.5,218.9z
		 M52.5,204.3c-1.7,0-3.1,1.4-3.1,3.1s1.4,3.1,3.1,3.1c1.7,0,3.1-1.4,3.1-3.1S54.2,204.3,52.5,204.3z M64,212.7
		c-2.3,0-4.2,1.9-4.2,4.2s1.9,4.2,4.2,4.2c2.3,0,4.2-1.9,4.2-4.2S66.3,212.7,64,212.7z M64,195.9c-2.3,0-4.2,1.9-4.2,4.2
		c0,2.3,1.9,4.2,4.2,4.2c2.3,0,4.2-1.9,4.2-4.2C68.2,197.7,66.3,195.9,64,195.9z M64,179.1c-2.3,0-4.2,1.9-4.2,4.2s1.9,4.2,4.2,4.2
		c2.3,0,4.2-1.9,4.2-4.2S66.3,179.1,64,179.1z M77.7,185.4c-2.9,0-5.2,2.3-5.2,5.2s2.3,5.2,5.2,5.2s5.2-2.3,5.2-5.2
		S80.5,185.4,77.7,185.4z M77.7,204.3c-2.9,0-5.2,2.3-5.2,5.2s2.3,5.2,5.2,5.2s5.2-2.3,5.2-5.2S80.5,204.3,77.7,204.3z M93.4,193.8
		c-3.5,0-6.3,2.8-6.3,6.3s2.8,6.3,6.3,6.3s6.3-2.8,6.3-6.3S96.8,193.8,93.4,193.8z"/>
</g>
</svg>
