<?xml version="1.0" encoding="utf-8"?>
<!-- Generator: Adobe Illustrator 18.1.1, SVG Export Plug-In . SVG Version: 6.00 Build 0)  -->
<svg version="1.1" baseProfile="basic" id="_x32_90x290"
	 xmlns="http://www.w3.org/2000/svg" xmlns:xlink="http://www.w3.org/1999/xlink" x="0px" y="0px" viewBox="0 0 290 290"
	 xml:space="preserve">
<path id="bg" fill="#418FDE" d="M290,290H0V0h290V290z"/>
<path id="design_mark_1_" fill="#FFFFFF" d="M90.9,81.3c0,5-4.1,9.1-9.1,9.1c-5,0-9.1-4.1-9.1-9.1c0-5,4.1-9.1,9.1-9.1
	C86.8,72.2,90.9,76.3,90.9,81.3z M81.8,114.5c-5,0-9.1,4.1-9.1,9.1s4.1,9.1,9.1,9.1c5,0,9.1-4.1,9.1-9.1S86.8,114.5,81.8,114.5z
	 M81.8,199.2c-5,0-9.1,4.1-9.1,9.1s4.1,9.1,9.1,9.1c5,0,9.1-4.1,9.1-9.1S86.8,199.2,81.8,199.2z M81.8,156.9c-5,0-9.1,4.1-9.1,9.1
	c0,5,4.1,9.1,9.1,9.1c5,0,9.1-4.1,9.1-9.1C90.9,160.9,86.8,156.9,81.8,156.9z M115,181.1c-6.7,0-12.1,5.4-12.1,12.1
	s5.4,12.1,12.1,12.1s12.1-5.4,12.1-12.1S121.7,181.1,115,181.1z M115,132.6c-6.7,0-12.1,5.4-12.1,12.1s5.4,12.1,12.1,12.1
	s12.1-5.4,12.1-12.1S121.7,132.6,115,132.6z M115,84.4c-6.7,0-12.1,5.4-12.1,12.1c0,6.7,5.4,12.1,12.1,12.1s12.1-5.4,12.1-12.1
	C127.1,89.8,121.7,84.4,115,84.4z M154.4,102.5c-8.3,0-15.1,6.8-15.1,15.1s6.8,15.1,15.1,15.1c8.3,0,15.1-6.8,15.1-15.1
	S162.7,102.5,154.4,102.5z M154.4,156.9c-8.3,0-15.1,6.8-15.1,15.1s6.8,15.1,15.1,15.1c8.3,0,15.1-6.8,15.1-15.1
	S162.7,156.9,154.4,156.9z M199.7,126.7c-10,0-18.1,8.1-18.1,18.2s8.1,18.2,18.1,18.2s18.1-8.1,18.1-18.2S209.8,126.7,199.7,126.7z"
	/>
</svg>
